<svg xmlns="http://www.w3.org/2000/svg" xmlns:xlink="http://www.w3.org/1999/xlink" width="865" zoomAndPan="magnify" viewBox="0 0 648.75 540.000001" height="720" preserveAspectRatio="xMidYMid meet" version="1.2"><defs><clipPath id="15af4ff50f"><path d="M 0.476562 0 L 555.042969 0 L 555.042969 539 L 0.476562 539 Z M 0.476562 0 "/></clipPath></defs><g id="cc9e7b7d7a"><g clip-rule="nonzero" clip-path="url(#15af4ff50f)"><path style=" stroke:none;fill-rule:nonzero;fill:#545454;fill-opacity:1;" d="M -77.164062 550.035156 L -77.164062 0.761719 C -66.78125 8.789062 -55.710938 15.726562 -43.960938 21.570312 L -41.414062 22.824219 C -34.578125 26.117188 -27.582031 29.011719 -20.421875 31.515625 C -13.261719 34.019531 -5.980469 36.109375 1.414062 37.792969 C 8.8125 39.476562 16.277344 40.738281 23.816406 41.578125 C 31.355469 42.417969 38.917969 42.832031 46.503906 42.820312 C 63.488281 42.824219 80.210938 40.746094 96.679688 36.585938 L 100.738281 35.480469 C 102.003906 35.171875 103.28125 34.902344 104.5625 34.667969 C 105.84375 34.433594 107.132812 34.234375 108.425781 34.070312 C 109.71875 33.910156 111.015625 33.78125 112.316406 33.691406 C 113.617188 33.601562 114.921875 33.546875 116.226562 33.527344 C 117.527344 33.507812 118.832031 33.527344 120.132812 33.582031 C 121.4375 33.632812 122.738281 33.726562 124.035156 33.851562 C 125.332031 33.976562 126.625 34.140625 127.914062 34.339844 C 129.203125 34.535156 130.484375 34.769531 131.761719 35.039062 C 133.039062 35.308594 134.304688 35.613281 135.5625 35.957031 C 136.820312 36.296875 138.070312 36.671875 139.308594 37.078125 C 140.546875 37.488281 141.773438 37.933594 142.984375 38.410156 C 144.199219 38.890625 145.398438 39.398438 146.582031 39.945312 C 147.765625 40.488281 148.933594 41.066406 150.089844 41.675781 C 151.242188 42.285156 152.375 42.925781 153.492188 43.597656 C 154.609375 44.269531 155.707031 44.972656 156.785156 45.707031 C 157.863281 46.441406 158.917969 47.203125 159.957031 47.996094 C 160.992188 48.789062 162.003906 49.609375 162.992188 50.457031 C 163.984375 51.308594 164.949219 52.183594 165.890625 53.085938 C 166.832031 53.988281 167.746094 54.914062 168.636719 55.871094 C 169.523438 56.824219 170.386719 57.800781 171.222656 58.800781 C 172.058594 59.804688 172.863281 60.828125 173.640625 61.871094 C 174.421875 62.917969 175.167969 63.984375 175.886719 65.074219 C 176.605469 66.160156 177.292969 67.269531 177.953125 68.394531 C 178.609375 69.519531 179.234375 70.664062 179.828125 71.824219 C 180.421875 72.988281 180.980469 74.164062 181.511719 75.355469 C 182.039062 76.546875 182.535156 77.753906 182.996094 78.972656 C 183.457031 80.191406 183.882812 81.425781 184.273438 82.667969 C 184.667969 83.910156 185.023438 85.164062 185.347656 86.425781 C 185.671875 87.691406 185.957031 88.960938 186.210938 90.242188 C 186.460938 91.519531 186.679688 92.804688 186.859375 94.097656 C 187.039062 95.386719 187.183594 96.683594 187.292969 97.984375 C 187.402344 99.28125 187.472656 100.585938 187.511719 101.886719 L 187.84375 101.886719 C 187.847656 105.015625 187.695312 108.140625 187.390625 111.253906 C 187.085938 114.371094 186.628906 117.460938 186.019531 120.53125 C 185.410156 123.601562 184.652344 126.632812 183.746094 129.628906 C 182.835938 132.625 181.78125 135.566406 180.585938 138.457031 C 179.386719 141.351562 178.046875 144.175781 176.570312 146.933594 C 175.09375 149.695312 173.484375 152.375 171.742188 154.972656 C 170.003906 157.574219 168.136719 160.082031 166.148438 162.5 C 164.160156 164.917969 162.058594 167.230469 159.839844 169.441406 C 155.671875 173.550781 151.160156 177.238281 146.300781 180.507812 C 141.671875 182.929688 137.183594 185.585938 132.835938 188.476562 C 130.25 190.136719 127.707031 191.871094 125.199219 193.640625 L 122.835938 195.375 C 120.769531 196.925781 118.742188 198.511719 116.75 200.171875 C 115.753906 200.984375 114.757812 201.796875 113.796875 202.679688 C 111.804688 204.339844 109.886719 206.113281 108.042969 207.917969 C 107.082031 208.769531 106.160156 209.691406 105.273438 210.613281 C 103.429688 212.421875 101.585938 214.300781 99.925781 216.222656 C 99.261719 216.921875 98.632812 217.621094 98.082031 218.324219 C 95.238281 221.496094 92.621094 224.742188 90.148438 228.101562 C 89.335938 229.132812 88.5625 230.167969 87.859375 231.238281 C 87.160156 232.304688 86.238281 233.523438 85.464844 234.667969 C 84.6875 235.8125 83.914062 236.992188 83.175781 238.355469 C 82.4375 239.722656 81.589844 240.867188 80.851562 242.046875 C 80.113281 243.226562 79.890625 243.632812 79.449219 244.445312 C 79.007812 245.257812 78.085938 246.878906 77.421875 248.132812 C 76.757812 249.386719 75.832031 251.121094 75.058594 252.632812 C 74.285156 254.148438 73.175781 256.324219 72.292969 258.425781 C 71.664062 259.828125 71.039062 261.269531 70.445312 262.707031 C 69.007812 266.101562 67.679688 269.605469 66.5 273.109375 C 66.179688 274.019531 65.882812 274.941406 65.613281 275.878906 C 65.097656 277.464844 64.617188 279.085938 64.136719 280.710938 C 63.660156 282.335938 62.996094 284.84375 62.515625 286.945312 C 62.21875 288.164062 61.925781 289.417969 61.667969 290.636719 C 61.261719 292.554688 60.855469 294.324219 60.523438 296.390625 C 59.96875 299.488281 59.527344 302.589844 59.15625 305.761719 C 59.15625 305.761719 59.15625 305.761719 59.15625 305.984375 C 59.15625 306.757812 58.972656 307.570312 58.898438 308.417969 C 58.882812 308.492188 58.882812 308.566406 58.898438 308.640625 C 58.898438 309.820312 58.679688 311 58.605469 312.328125 L 58.605469 313.65625 C 58.605469 315.574219 58.347656 317.347656 58.308594 319.449219 C 58.289062 319.707031 58.289062 319.964844 58.308594 320.222656 C 58.308594 321.847656 58.308594 323.46875 58.308594 325.09375 C 58.308594 326.71875 58.308594 328.78125 58.308594 330.847656 C 58.308594 331.992188 58.308594 333.101562 58.308594 334.207031 C 58.308594 335.3125 58.308594 336.421875 58.53125 337.527344 C 58.75 338.632812 58.75 340.257812 58.898438 341.621094 C 58.898438 342.136719 58.898438 342.65625 58.898438 343.132812 C 58.898438 344.757812 59.269531 346.382812 59.527344 347.96875 C 59.507812 348.203125 59.507812 348.433594 59.527344 348.667969 C 59.785156 350.367188 60.042969 352.0625 60.339844 353.722656 C 60.351562 353.847656 60.351562 353.96875 60.339844 354.09375 C 60.707031 355.972656 61.078125 357.78125 61.480469 359.699219 C 61.886719 361.617188 62.074219 362.46875 62.441406 363.832031 C 62.808594 365.195312 63.070312 366.378906 63.4375 367.519531 C 63.804688 368.664062 64.101562 370.066406 64.507812 371.210938 C 64.914062 372.355469 65.464844 374.347656 65.984375 375.894531 C 66.5 377.445312 67.015625 378.921875 67.570312 380.433594 C 68.121094 381.945312 68.492188 382.90625 68.972656 384.125 C 69.449219 385.339844 69.855469 386.375 70.335938 387.519531 C 71.738281 390.839844 73.25 394.121094 74.875 397.332031 L 76.089844 399.730469 C 77.089844 401.609375 78.121094 403.417969 79.191406 405.335938 C 79.558594 406 79.929688 406.664062 80.335938 407.328125 L 80.554688 407.699219 C 81.144531 408.65625 81.699219 409.617188 82.328125 410.539062 C 82.953125 411.460938 84.023438 413.195312 84.871094 414.523438 C 85.722656 415.851562 86.679688 417.144531 87.601562 418.433594 C 88.523438 419.726562 89.078125 420.539062 89.890625 421.570312 C 91.441406 423.671875 93.0625 425.738281 94.722656 427.769531 L 97.195312 430.644531 C 98.007812 431.640625 98.890625 432.601562 99.777344 433.5625 C 100.664062 434.519531 101.917969 435.886719 103.023438 437.027344 C 104.128906 438.171875 104.683594 438.761719 105.605469 439.613281 C 106.527344 440.460938 107.121094 441.125 107.894531 441.863281 C 109.703125 443.597656 111.582031 445.328125 113.5 446.988281 L 113.945312 447.359375 C 115.53125 448.761719 117.191406 450.125 118.851562 451.417969 L 119.738281 452.15625 L 120.953125 453.039062 C 121.875 453.777344 122.800781 454.441406 123.722656 455.144531 L 127.964844 458.167969 L 129.035156 458.90625 L 132.722656 461.378906 C 134.457031 462.484375 136.191406 463.554688 138 464.589844 C 139.808594 465.621094 140.804688 466.210938 142.242188 466.988281 C 143.742188 467.824219 145.292969 468.632812 146.890625 469.421875 L 147.148438 469.421875 L 149.179688 470.417969 C 158.917969 475.261719 169.050781 479.046875 179.582031 481.769531 C 190.113281 484.492188 200.808594 486.09375 211.675781 486.578125 L 440.675781 486.578125 C 444.695312 486.574219 448.710938 486.769531 452.710938 487.160156 C 456.714844 487.550781 460.6875 488.140625 464.632812 488.921875 C 468.578125 489.703125 472.476562 490.679688 476.328125 491.84375 C 480.175781 493.011719 483.957031 494.363281 487.675781 495.898438 C 491.390625 497.4375 495.023438 499.152344 498.570312 501.046875 C 502.121094 502.945312 505.566406 505.007812 508.910156 507.242188 C 512.253906 509.476562 515.480469 511.867188 518.589844 514.417969 C 521.699219 516.96875 524.679688 519.667969 527.523438 522.511719 L 555.042969 550.035156 Z M -77.164062 550.035156 "/></g></g></svg>